<svg xmlns="http://www.w3.org/2000/svg" viewBox="0 0 150.52 142.49"><defs><style>.cls-1{fill:#fefefe;}.cls-2{fill:#931e80;}.cls-3{fill:#7f2277;}.cls-4{fill:#ececed;}.cls-5{fill:#116631;}.cls-6{fill:#ececec;}.cls-7{fill:#7e5026;}.cls-8{fill:#dadbdb;}.cls-9{fill:#eab109;}.cls-10{fill:#e5a82c;}.cls-11{fill:#d9dada;}.cls-12{fill:#fafafb;}.cls-13{fill:#94c022;}.cls-14{fill:#f9cc1c;}.cls-15{fill:#c88911;}</style></defs><title>iconRecurso 15</title><g id="Capa_2" data-name="Capa 2"><g id="Capa_1-2" data-name="Capa 1"><path class="cls-1" d="M54.14,129.13c0,.6-.06,1.25.71,1.5,2.15.17,2.5,1.65,2.11,3.3-.47,2-2,2.06-3.68,1.54a2.37,2.37,0,0,1-1.38-1.73C50.45,131.13,53.39,130.66,54.14,129.13Z"/><path class="cls-1" d="M51.9,133.74l1.54.8c2.11,1.79.09,1.83-1,2.28a3.55,3.55,0,0,0-.71.19C49.06,135.81,51.49,134.81,51.9,133.74Z"/><path class="cls-2" d="M73,6.8c8.89,0,18,.52,27-.13,10.6-.77,17.11,4.05,22,12.85,8.45,15.2,17.38,30.13,25.9,45.29,4,7.08,3.15,14.23-.88,21.13q-13.85,23.7-27.65,47.42a17.31,17.31,0,0,1-15.45,9c-19.3.22-38.62.25-57.92,0-7.22-.1-12.72-3.7-16.39-10.21C21.8,118.2,14.35,104,5.58,90.72c-7.33-11.13-7.42-21-.38-32.12C13.52,45.45,21,31.76,28.72,18.24c2.58-4.51,5.63-8.33,10.57-10.39a12,12,0,0,1,4.9-1.07c7.88.06,15.77,0,23.65.07,2.35,0,3.64-.33,2.88-3a5.17,5.17,0,0,1,0-2c.08-.69-.31-1.81.81-1.85S73,.92,73,1.92C73.06,3.46,73,5,73,6.8Z"/><path class="cls-3" d="M74.59,10.66c1-1.2,2.46-.67,3.7-.68,8.27-.05,16.55,0,24.82,0,6.67,0,11.36,3.33,14.59,8.88,8.69,14.91,17.07,30,26,44.76,5.43,8.95,3.24,16.5-1.8,24.65-7.84,12.69-15,25.79-22.48,38.71-2.54,4.4-4.76,9.07-10.19,10.77a10.17,10.17,0,0,1-3,.74c-10,0-20,0-29.95,0a1.79,1.79,0,0,1-1.73-.69c-2.8-4.34-1.62-9-1-13.54,1.38-2.41,3.8-2.59,6.15-2.63a28.09,28.09,0,0,0,7.36-.94C93.2,118.89,96,114,95,107.73c-1.15-7.62-5.62-13.71-8.8-20.4C85.39,85.56,84.16,84,83.8,82a8,8,0,0,1-.07-2.44c0-2.61,2.1-4.14,3.26-6.15a12.88,12.88,0,0,0,1.87-3.36c-.79-1.28-2.75-.36-3.48-1.75-.47-3.86,2.13-6.58,3.73-9.63A6.64,6.64,0,0,0,85,48.87a43.25,43.25,0,0,0-6.88-1.5c-2-.23-3.82-.9-4.67-3-1-10.19-.35-20.39-.37-30.58A4.78,4.78,0,0,1,74.59,10.66Z"/><path class="cls-2" d="M74.59,10.66q0,17.33,0,34.64C73.54,47,71.68,47,70.07,47c-3.38-.12-4.35,1.88-4.43,4.63A49.93,49.93,0,0,0,65.81,61a9,9,0,0,1-.28,4.63c-.64,1.65-2.12,1.63-3.56,1.89-4.2.76-4.45,1.42-2,4.86a16.35,16.35,0,0,0,1.47,1.83,4.16,4.16,0,0,1,.7.81c.56,1.47,2,2.51,2.17,4.17a18.45,18.45,0,0,1,0,3.24c-4,8-8.28,15.76-11.46,24.1A4.06,4.06,0,0,1,51.19,108c-1.23.93-2.35,1.94-2.5,3.63a3.75,3.75,0,0,0,.11,3.42,7.84,7.84,0,0,0,10.89,6.48,4.65,4.65,0,0,1,3-.42c2.92.06,5.86-.25,8.73.63,1.22.38,2.52.52,3.18,1.83q0,7.06,0,14.14c-9.45,0-18.91,0-28.36-.1-4.86,0-8.84-1.83-11.4-6.21-7.2-12.33-14.54-24.59-21.59-37-3-5.29-6.54-10.28-8.75-16a11.71,11.71,0,0,1,1-10.49Q19.74,43.1,34.2,18.38c3.09-5.29,7.88-7.67,14-7.65C57,10.77,65.79,10.69,74.59,10.66Z"/><path class="cls-4" d="M75.33,128c-4.82-.76-9.78-.46-14.5-1.94-.61-1.36.41-2.23,1-3.25,1.79-3.35,2.31-6.84.33-10.22-2.07-3.53-5.52-4.28-9.32-3.94-1.17.1-2.37.6-3.33-.53,3.2-9.82,8.16-18.8,13.32-27.68.09-.12.16-.32.28-.34C71,78.35,79,78,86.87,80.34c4.44,8.06,9.33,15.87,12,24.78,2,6.52,2.53,12.66-3,17.85a15.06,15.06,0,0,1-9.6,3.81C82.6,127,79,127.9,75.33,128Z"/><path class="cls-5" d="M63.67,63.12c0-6.72.16-13.44-.07-20.16-.11-3.23,1-4.2,4.1-4,2.51.2,5.07,0,7.6-.1,4.61.93,9.2,2,13.83,2.75,2,.34,3.64.78,3,3.26-.3,1.14.09,1.91,1,2,4.82.7,2.73,3.24,1.53,5.5-2.23,4.17-4.5,8.31-6.75,12.46a3.15,3.15,0,0,1-2.54,2.29C77.7,68.15,70.35,67.38,63.67,63.12Z"/><path class="cls-6" d="M63.67,63.12c5.91,0,11.4,2.61,17.33,2.7,2.4,0,4.67.1,6.88-.9,2.36,1.1,4.61-1.85,7.33-.06L90.6,71.49c-3.84,1.91-7.25,4.59-11.2,6.33a7.85,7.85,0,0,1-2.8,1.12c-3.3,0-6.58,0-9.86,0-1.49,0-3,.13-3.95-1.46-.68-1.61-2.91-2.21-2.79-4.32.16-.65,2.27.1,1.11-1.37s0,.56-.44.35a1.71,1.71,0,0,1-.64,1c-2.42-1.13-3.1-3.8-4.83-5.58-1.57-1.61.16-3.07,1.45-3.95A6.38,6.38,0,0,1,63.67,63.12Z"/><path class="cls-7" d="M62.79,77.5l15.23,0c3-.82,6-2.77,8.87.17,0,.9,0,1.8,0,2.7l-24.08.1A1.71,1.71,0,0,1,62.79,77.5Z"/><path class="cls-8" d="M86.89,77.64,78,77.47c3.09-3.25,7.9-3.89,11-7.27.82-.9,1.4.41,1.61,1.29C90,73.92,87.27,75.07,86.89,77.64Z"/><path class="cls-9" d="M49.47,108.12c6.64-2,11.27-.72,14.14,4,2.26,3.69,1.12,9.41-2.78,14-8.89,3.72-15.45.47-16-7.93a1.46,1.46,0,0,1,1.08-.57c1.89.28,1.89,2.09,2.66,3.29,2.08,3.22,5.42,4.46,8.4,3.11,3.57-1.61,5.14-5.83,3.72-10-1-2.78-4.27-4.31-7.84-3.45-1.57.38-3,1.31-4.75.8-.86-.55-1.34-1.21-.58-2.19C48.25,109,49.13,109,49.47,108.12Z"/><path class="cls-10" d="M81.23,99c-3.18.63-4.83-2.58-7.63-1.73-.86.26-2,.17-2.22,1.11-.28,1.18.85,1.91,1.71,2.25a27.34,27.34,0,0,0,4.68,1.15c3.25.63,5.88,2,6.51,5.59.67,3.88-.57,6.62-4.53,7.94-1.32.44-2.82,1-2.7,3,.1,1.55-1.21,1.49-2.22,1.41s-2.85.63-2.92-1.07c-.09-2.61-2.08-2.89-3.67-3.77a6.06,6.06,0,0,1-1.9-1.09c-1.21-1.5-2.8-3.59-1.31-5.07a3.65,3.65,0,0,1,5.5.65c1.52,2.24,3.5,2.59,5.76,2.16a2.31,2.31,0,0,0,2.11-2.37,2.15,2.15,0,0,0-2-2,35.07,35.07,0,0,1-6.31-1.78c-2.19-.82-4.43-1.57-4.72-4.6a6.48,6.48,0,0,1,3.57-7c1.22-.68,2.52-1,2.87-2.89.53-2.89,4.4-1.53,4.43-1.3.53,3.67,4.32,3.46,6.14,5.45.91,1,1.91,2.28,1.48,3.47S81.76,98.73,81.23,99Z"/><path class="cls-11" d="M95.88,101.76a20.44,20.44,0,0,1,2.7,13.2c-.7,7.38-10.81,13-17.4,9.79A3.45,3.45,0,0,1,79,121.62a2.81,2.81,0,0,1,1.86-2.77,14,14,0,0,1,2.52-.82C93.76,115.85,96.21,112.85,95.88,101.76Z"/><path class="cls-12" d="M54.86,102.07a48.57,48.57,0,0,1,9.83-19.93A63.08,63.08,0,0,1,54.86,102.07Z"/><path class="cls-13" d="M83.9,57.36c-3.85-7.23-11.05-8.06-17.61-1.69.87-3.93-2-7.92,1.74-10.56C72.38,42,80.3,41.87,83.17,44,88.57,48.1,85.69,52.62,83.9,57.36Z"/><path class="cls-13" d="M81.49,59.08c0,1.14-.77,1.34-1.34,1.78-1.69,1.33-8.38.88-10-.63-2.11-2-2.29-3.51.71-4.66.66-.26,1.75-1,1.79-1,2.08,3,7.08-1.09,8.4,3.52A5.21,5.21,0,0,0,81.49,59.08Z"/><path class="cls-13" d="M88.28,56.53c-.93-2,.82-2.6,1.35-3.76C90,54.33,89.15,55.34,88.28,56.53Z"/><path class="cls-12" d="M60,73.21l-2.65-6c3.74,2.34,5.81,5,7.51,9.43L60,73.18Z"/><path class="cls-14" d="M45.64,117.92c.23-.92,2.48-1,1.09-2.59,1-.54,2.51,1.51,2.84-.11.27-1.31.63-3.34-1.24-4.35,1.62-.74,3.11-1.7,5-1.86,5-.41,8.46,1.62,9.32,5.7,1.08,5.05-1.42,9.77-5.85,11.07-4,1.19-8.43-1.37-10.17-5.92A18.56,18.56,0,0,0,45.64,117.92Z"/><path class="cls-5" d="M77.1,49.7c-1-.54-2.44-.55-2.54-2.05s.82-2.13,2.17-2.26,2.62.12,2.79,1.51S78.38,49.12,77.1,49.7Z"/><path class="cls-15" d="M59.16,114.86a51.24,51.24,0,0,1-1,5.55c-.74,2.41-3.27,3.23-5.09,3.29-1.05,0-2.2-2.72-3.31-4.23,3.41-1.24.49-5,2.63-6.69,1.39-1.13,2.89-2.36,4.76-1.7S58.43,113.83,59.16,114.86Z"/><path class="cls-1" d="M42.34,28.88a17.2,17.2,0,0,1,.06-4.31c.76-2.88,2.14-5.25,5.78-5.21s5.67,1.45,6,5.15c.18,2.25.94,4.28.2,6.79-1.62,5.5-2.67,6.83-7.75,6.18-4.47-.57-4.28-4.12-4.28-7.42V28.88Z"/><path class="cls-2" d="M51,28.76c.27,2.34-.44,5.89-2.68,5.81-2.51-.09-3-3.73-2.79-6.36.16-2.19-.06-5.49,2.85-5.38S51,26.13,51,28.76Z"/><path class="cls-1" d="M58.43,23.21c-1.18-.94-3.43,2.24-3.84-1-.28-2.33,1.72-2.37,3.27-2.74,5-1.19,5-1.19,5,4.11,0,2.36,0,4.71,0,7.07,0,1.78-.77,4.06,2.45,4.06,1,0,.82,1.24.78,2s-.7,1.1-1.42,1.1l-8.24,0c-1.06,0-1.85-.2-1.85-1.57s.48-1.88,1.68-1.74c2.54.3,2.51-1.33,2.46-3.12-.06-2.35,0-4.71,0-7.07A6.21,6.21,0,0,0,58.43,23.21Z"/></g></g></svg>