<svg xmlns="http://www.w3.org/2000/svg" viewBox="0 0 155.23 140.07"><defs><style>.cls-1{fill:#94c022;}.cls-2{fill:#83b227;}.cls-3{fill:#fefefe;}.cls-4{fill:#e4741a;}.cls-5{fill:#fcbe00;}.cls-6{fill:#e4e4e4;}.cls-7{fill:#d8d8d8;}.cls-8{fill:#fd8721;}.cls-9{fill:#fda732;}.cls-10{fill:#fd9823;}.cls-11{fill:#fed300;}</style></defs><title>iconRecurso 17</title><g id="Capa_2" data-name="Capa 2"><g id="Capa_1-2" data-name="Capa 1"><path class="cls-1" d="M14.94,101.63c-3.95-7-7.81-14-11.82-20.93C-1,73.6-1.06,66.62,3.07,59.49,12.56,43.13,21.94,26.71,31.4,10.34,35.56,3.14,42.27.21,50.17.13q27.49-.27,55,0c9,.08,15.52,4.38,20,12.34,9.06,16.15,18.55,32.05,27.59,48.2,4,7.14,2.84,14.36-1.25,21.24-3.47,5.84-7.1,11.6-10.25,17.6-5.6,10.65-12.16,20.72-18.17,31.12C119.37,137,113.31,140,106,140c-19,.07-38,.14-57,0-8.19-.07-14.33-3.86-18.31-11.26-4.11-7.62-8.65-15-12.82-22.59-1.06-1.94-2.13-1.25-3.59-1-1.15.22-2.71,2-3.5.15s1.07-2.3,2.54-2.7A7,7,0,0,0,14.94,101.63Z"/><path class="cls-2" d="M76.78,5.73C78,4.51,79.59,5.05,81,5c8.35-.06,16.69,0,25,0,6.66-.09,11.36,2.7,14.69,8.47C130.16,29.8,139.86,46,149.28,62.33a15.9,15.9,0,0,1,0,16.41C142,91.58,134.47,104.27,127,117c-2.14,3.67-4.48,7.24-6.51,11-3,5.62-7.72,8.12-14.09,8-8.48-.12-17,0-25.44-.06-1.41,0-3,.53-4.22-.69a6.05,6.05,0,0,1-1.64-4.77q-.08-20.22,0-40.44a13.2,13.2,0,0,1,.74-4.32,4,4,0,0,1,3-2.46c5.63-1.18,11.27-2.26,17.06-1.54,1.42-.2,3.1,1.59,4.07.3s-.58-2.92-1.14-4.36c-1.29-3.3-3.34-6.33-3.66-10,1.16-5.26.4-7-4.05-8.89-3-2.61-4-6.4-5.76-9.74-.47-.91-.73-2.26-1.93-2.25s-1.11,1.59-1.7,2.4c-1.52,1.88-2.54,5-5.9,2.38a7.08,7.08,0,0,1-.69-3.89c-.06-12.26,0-24.53,0-36.79C75.13,9,75.26,7.14,76.78,5.73Z"/><path class="cls-1" d="M76.83,85.14q0,25,0,50.1c-9.42,0-18.84-.18-28.26,0A13.92,13.92,0,0,1,35.8,128.1c-10-16.9-19.61-34-29.3-51.1a13.6,13.6,0,0,1,.11-14.16C15.11,48,24.34,33.54,32,18.29c5.53-11,13.44-14.57,25-13.48,6.53.62,13.18.06,19.77,0q0,23.55.08,47.09c.48,2.8-1.78,4-3.33,5.57-6,6-13.39,9.9-21,13.34-1.83.75-3.51,1.8-5.28,2.67-4.62,2.25-4.61,2.27-3.59,7.34-.65,3.06-.77,5.92,2.81,7.36a9.47,9.47,0,0,1,3,3.73A5.27,5.27,0,0,0,53.6,94.7a3.7,3.7,0,0,1,1.43,1c2.32,3,4,6.34,6.06,9.51,1.1,1.72,2.37,3,4.61,1.69s2.18-3.06,1.08-5.14c-1.51-2.85-3.59-5.37-4.89-8.34a3.23,3.23,0,0,1,0-3c3.35-3.3,7.75-4.48,12-5.91A2.39,2.39,0,0,1,76.83,85.14Z"/><path class="cls-3" d="M56.33,23.84c-1.53,6.68-3.78,8.15-8.82,7a4,4,0,0,1-2.32-1.39c-2.22-2.69-2-12.43.05-15.25,1.77-2.4,4.16-2.3,6.5-1.9a4.79,4.79,0,0,1,4,4.36c.3,2.08,1.32,4.06.64,7,3.18-2.82,4.62-6.05,6.54-8.84,1.2-1.73,2.3-3,4.44-2.55,2.59.5,1,2.6,1.31,3.93.63,2.69-.7,5.48,1.38,8.29,1.21,1.63-1.95,3.82-1.91,6.17-1.21,0-3.32.94-3.28-.87.09-3.95-2.49-2.82-4.55-3C58.81,26.6,56.59,27.74,56.33,23.84Z"/><path class="cls-1" d="M52.56,22.38c0,2.07.26,5.6-2.79,5.48-2.52-.1-2.66-3.74-2.86-6.24,0-.52-.13-1.22.15-1.55,1.17-1.41.17-4.75,2.9-4.43,2.47.29,2.6,2.92,2.6,5.09Z"/><path class="cls-1" d="M64.26,19.12c.1,1.5,1.29,3.23-.5,4.3-.46.27-1.8.08-1.86-.15C61.34,21.29,63.36,20.56,64.26,19.12Z"/><path class="cls-4" d="M121.31,82.24a8.4,8.4,0,0,1-1.7,2l-40.11,40a2.94,2.94,0,0,1-2.28,1.18.4.4,0,0,1-.09-.39c2.05-6,4.19-12,6.29-17.93q4.38-12.5,8.78-25c.14-.41.27-.83.77-1a4.82,4.82,0,0,1,1.2-.08h25.65a2.11,2.11,0,0,1,1.49.28Z"/><path class="cls-5" d="M121.31,81.38H92.72a2.08,2.08,0,0,1-1.15.27H78.28a2.43,2.43,0,0,1-.93-.12.54.54,0,0,1-.25-.22A2.76,2.76,0,0,1,76.94,80V59.64a5.31,5.31,0,0,1,.09-1.2,1,1,0,0,1,.19-.29.18.18,0,0,1,.16,0,3,3,0,0,1,.82,1Q85.09,69.45,92,79.75l.23.36c.51.75.52.76,1,0,1.74-2.71,3.43-5.43,5.13-8.16q4-6.39,8-12.77c.16-.27.29-.65.74-.58s.75.61,1,1l12.78,20c.18.28.33.59.49.89Z"/><path class="cls-6" d="M77.22,52.78a2.53,2.53,0,0,1-2.59-2.69c0-3.18.06-6.36,0-9.54a3.08,3.08,0,0,1,1.92-3.27h.69a1.59,1.59,0,0,1,.27,1.14q0,6.61,0,13.22A1.54,1.54,0,0,1,77.22,52.78Z"/><path class="cls-7" d="M77.22,52.78V37.28h.68a3.08,3.08,0,0,1,1.92,3.27c-.08,3.18,0,6.35,0,9.53A2.53,2.53,0,0,1,77.22,52.78Z"/><path class="cls-8" d="M76.51,125.32a2.3,2.3,0,0,1-1.37-.84Q54.59,104,34,83.45a3,3,0,0,1-.88-2.07,1.2,1.2,0,0,1,1-.27q13.43,0,26.84,0c.12,0,.23,0,.34,0a1.67,1.67,0,0,1,.3.08,1.77,1.77,0,0,1,.7,1.14c2,5.88,4.12,11.74,6.18,17.6,2.74,7.81,5.47,15.63,8.25,23.43a6.84,6.84,0,0,1,.42,1.4C77.21,125.25,77,125.52,76.51,125.32Z"/><path class="cls-9" d="M77.22,58.15c0,.05,0,.1,0,.14a8.57,8.57,0,0,1-.79,1.42Q69.51,70.06,62.59,80.42c-.25.38-.38,1-1.05.84a14.87,14.87,0,0,1-2-3q-5.9-9.41-11.76-18.81a1.52,1.52,0,0,1-.37-.85,2.06,2.06,0,0,1,1.43-.5Z"/><path class="cls-10" d="M107,58.62a24.52,24.52,0,0,0-2.4,3.63c-2.56,4-5.07,8.09-7.6,12.14-1.4,2.25-2.82,4.5-4.22,6.74-.32,0-.39-.28-.51-.45Q84.92,69.61,77.55,58.54a1.63,1.63,0,0,1-.17-.38c2,0,4,0,6,0h21.87A2.41,2.41,0,0,1,107,58.62Z"/><path class="cls-9" d="M76.51,125.32c.6,0,.53-.3.38-.73-.89-2.53-1.76-5.08-2.65-7.61-1-2.81-2-5.61-3-8.41L62,82.26c-.1-.3-.22-.59-.33-.88A2.23,2.23,0,0,1,63,81.1H76a1.74,1.74,0,0,1,1.23.27v0A2.33,2.33,0,0,1,77.49,83q0,19.14,0,38.26v2a5.91,5.91,0,0,1-.28,1.86v.3A.78.78,0,0,1,76.51,125.32Z"/><path class="cls-11" d="M47.41,58.63c1.56,2.18,2.89,4.52,4.32,6.78,2.52,4,5,8,7.49,12,.79,1.26,1.55,2.53,2.32,3.8.06,0,.08.06.06.1a.07.07,0,0,1-.06,0l-15.13,0H33.16a2.62,2.62,0,0,1,.53-1.77l12.71-20A2.17,2.17,0,0,1,47.41,58.63Z"/><path class="cls-6" d="M65.39,53.82a2.67,2.67,0,0,1-1.59-.45Q60.2,51,56.63,48.69a2.58,2.58,0,0,1-.77-3.48,2.52,2.52,0,0,1,3.44-.9q3.84,2.41,7.6,5a2.3,2.3,0,0,1,.85,2.87A2.36,2.36,0,0,1,65.39,53.82Z"/><path class="cls-7" d="M89.08,53.82a2.59,2.59,0,0,1-2.49-1.77,2.68,2.68,0,0,1,.92-2.85C90,47.57,92.44,46,94.93,44.38a2.6,2.6,0,0,1,3.58.74,2.54,2.54,0,0,1-.72,3.55c-2.5,1.62-5,3.25-7.49,4.86A1.82,1.82,0,0,1,89.08,53.82Z"/><path class="cls-10" d="M77.22,125.14q0-21.89,0-43.75H92.72l-3.88,11-9.06,25.83c-.72,2.06-1.46,4.1-2.18,6.15A1.49,1.49,0,0,1,77.22,125.14Z"/><path class="cls-11" d="M61.54,81.35v-.14c.48,0,.58-.44.77-.73l14.27-21.4c.18-.28.29-.63.63-.79q0,11.55,0,23.08H61.71Z"/></g></g></svg>