<svg xmlns="http://www.w3.org/2000/svg" viewBox="0 0 271 253.73"><defs><style>.cls-1{fill:#f7f7f7;}.cls-2{fill:#e9e8ea;}.cls-3{fill:#f4f4f5;}.cls-4{fill:#79e883;}.cls-5{fill:#55dca0;}.cls-6{fill:#444;}.cls-7{fill:#00c6cd;}.cls-8{fill:#00dcc0;}.cls-9{fill:#e4e4e4;}.cls-10{fill:#5a5a5a;}.cls-11{fill:#a14f3d;}.cls-12{fill:#b25c4b;}</style></defs><title>iconRecurso 20</title><g id="Capa_2" data-name="Capa 2"><g id="Capa_1-2" data-name="Capa 1"><path class="cls-1" d="M255,70.05h-.26a5.66,5.66,0,0,1-.25-4,.44.44,0,0,1,.42-.2Z"/><path class="cls-2" d="M254.9,65.83l-.25,0-.17-.16a4.31,4.31,0,0,1,0-2.92.28.28,0,0,1,.4-.1Z"/><path class="cls-3" d="M254.83,62.67h-.25a1.32,1.32,0,0,1,0-1.85h.24Z"/><path class="cls-4" d="M253,130.32a1,1,0,0,1,0,1.3Z"/><path class="cls-5" d="M253,126c.31.22.28.43,0,.65Z"/><path class="cls-6" d="M174.84,0a12.5,12.5,0,0,0,3.54.59,52.58,52.58,0,0,1,29,14.52,19.13,19.13,0,0,1,4.89,5.1,51.38,51.38,0,0,1,8.78,17.86,63.81,63.81,0,0,1,1.5,7.89,1.41,1.41,0,0,1-.36,1.46,2.61,2.61,0,0,1-1.54-.06,10.74,10.74,0,0,0-4.55.14,2.92,2.92,0,0,1-1.55.14c-.63-.34-.7-1-.77-1.58a42.74,42.74,0,0,0-11.06-23.83,38,38,0,0,0-8.44-6.87A43.93,43.93,0,0,0,177.55,9a47,47,0,0,0-7.86-.57c-7.55.13-15.1.31-22.65.48-2.83.07-3.87,1-4.38,3.71a5.32,5.32,0,0,0-.13,1.82c0,2.23,0,2.23-2.05,2.64a13.52,13.52,0,0,0-5.51.55.59.59,0,0,1-.61-.14c-.07-2.67-.37-5.36.35-8A11.62,11.62,0,0,1,143.44.93c.2-.05.44,0,.54-.27Z"/><path class="cls-7" d="M134.36,17.48a10.42,10.42,0,0,1,6-.69,1.64,1.64,0,0,1,1.25.11c.29.26.57.54,1,.46a13.53,13.53,0,0,1,6.26,5.75,1,1,0,0,0,.64.9,30.28,30.28,0,0,1,3.86,7.58,21.87,21.87,0,0,1,1.25,3.71c-.51.59.33.63.4,1a101.87,101.87,0,0,1,2.83,12,97,97,0,0,1,1.56,14.12,29.13,29.13,0,0,0,.34,4.06,1,1,0,0,0,1.14,1h1.45l31.08-.67a4.87,4.87,0,0,1,2.21.2c.52.87-.25,1.29-.71,1.7a11.56,11.56,0,0,1-7.44,3c-2.59.1-5.18.08-7.78.2a3.64,3.64,0,0,0-3.62,2.54,3.54,3.54,0,0,0,2.79,4.47,8.09,8.09,0,0,0,1.84.09c4.75-.1,9.49-.27,14.24-.29,5.26,0,9.26,2.19,11.66,7a12.15,12.15,0,0,1-8.41,17.17,17.49,17.49,0,0,1-3.14.38L157,104c-.73,0-1.51.21-2.15-.36a4.68,4.68,0,0,1,.34-2.31,101.6,101.6,0,0,0,3.35-20.93c.19-3.33.42-6.66.28-10-.09-2-.08-2-2.14-2l-34.29.73a3.53,3.53,0,0,1-2.3-.33h0a4,4,0,0,1,0-2,16.11,16.11,0,0,1,0-3.33c.3-1,0-1.93,0-2.9a4.08,4.08,0,0,1,.08-1.39l0-1c.23-.73-.1-1.49.14-2.21l0-1.23c.22-.52-.09-1.1.17-1.62a.17.17,0,0,1,0-.22c.51-.61-.17-1.33.18-2l.47-3.87c.56-.48-.14-1.13.21-1.65.63-3,1-6.05,1.87-9q.67-2.35,1.33-4.73c.14-.35.61-.6.37-1.09L126.13,28a8.58,8.58,0,0,0,1.23-2.57c.26-.13.18-.42.28-.62.56-.23.48-.83.73-1.24a20.87,20.87,0,0,1,4.18-4.66,1.91,1.91,0,0,0,1.5-1.07Z"/><path class="cls-8" d="M120.07,68.76q19-.42,38-.86c1,0,1.11.44,1.14,1.26a122.35,122.35,0,0,1-.69,16.24,102.71,102.71,0,0,1-3.4,17.74,4.14,4.14,0,0,1-.19.49.69.69,0,0,1,.09.74c-1.52,4.38-3.26,8.62-6.57,12a12.86,12.86,0,0,1-6.31,3.85,9.78,9.78,0,0,1-4.17-.18,2,2,0,0,1-1.33-.77c-5.09-2.7-7.76-7.35-9.87-12.4a86.74,86.74,0,0,1-5.53-22.27A125.89,125.89,0,0,1,120.07,68.76Z"/><path class="cls-9" d="M254.65,65.85c0,1.4,0,2.81.08,4.21a110.29,110.29,0,0,1-4,30.41,35.87,35.87,0,0,1-5.43,11.75c-2.66,3.53-5.88,5.87-10.7,5.84-8.33,0-16.68.3-25,.48-.2-.65.33-1,.65-1.33a50.25,50.25,0,0,0,12.11-27.13,28.78,28.78,0,0,1,.61-4.43c.56-.72,1.46-.93,2.18-1.42a11.16,11.16,0,0,0,5.29-9.84c0-2.14-.11-4.29-.13-6.44,0-.6-.13-1.23.36-1.74a1.51,1.51,0,0,1,.45-.2c1.93-.23,3.86-.16,5.8-.21q7.83-.19,15.68-.34a2.81,2.81,0,0,1,2,.37Z"/><path class="cls-10" d="M223.09,85.76a51.84,51.84,0,0,1-13.49,32.78,56.69,56.69,0,0,1-11.1,9,48.91,48.91,0,0,1-21.12,7.22c-9.55.86-19.15.71-28.72.83-6.82.08-11.59-4.89-12-12-.08-1.44-.05-2.9-.07-4.35a12.31,12.31,0,0,0,5.74.63,3.06,3.06,0,0,1,.89-.18c1.18-.17,1.46.07,1.57,1.28a15.28,15.28,0,0,0,.23,3.24c.63,2.13,1.81,3.11,4,3.07,8.57-.14,17.14-.14,25.7-.6A41.56,41.56,0,0,0,196.58,119a43,43,0,0,0,18.13-31.44,2.45,2.45,0,0,1,.61-1.93,16.1,16.1,0,0,0,6.91,0A.87.87,0,0,1,223.09,85.76Z"/><path class="cls-7" d="M120.15,59.17c.15,1.25-.14,2.53.31,3.77.11.3-.13.47-.43.52A16.66,16.66,0,0,1,120.15,59.17Z"/><path class="cls-7" d="M120.75,50.94c-.33.62.93,1.4-.18,2A4,4,0,0,1,120.75,50.94Z"/><path class="cls-7" d="M121.43,45.42c-.29.52.93,1.24-.21,1.65A3.12,3.12,0,0,1,121.43,45.42Z"/><path class="cls-7" d="M120.33,56c0,.74.29,1.5-.14,2.21A4.6,4.6,0,0,1,120.33,56Z"/><path class="cls-7" d="M120,66.79c0,.66,0,1.31,0,2A2.79,2.79,0,0,1,120,66.79Z"/><path class="cls-7" d="M120.55,53.11c0,.54.22,1.11-.17,1.62A2.58,2.58,0,0,1,120.55,53.11Z"/><path class="cls-9" d="M254.62,65.83l-23.76.5a2.54,2.54,0,0,1-.36-1.76,67,67,0,0,0-.41-7.36,11.5,11.5,0,0,0-6.19-8.79c-.58-.32-1.41-.3-1.63-1.15a50.15,50.15,0,0,0-4.37-17,51.7,51.7,0,0,0-10.5-15.19c8.74-.18,17.48-.33,26.22-.56a10.4,10.4,0,0,1,7.28,2.84C244.26,20.28,246.31,24,248,28a84.28,84.28,0,0,1,5.25,20.14q.95,6.3,1.32,12.65l0,1.85C254.6,63.72,254.61,64.78,254.62,65.83Z"/><path class="cls-9" d="M157.41,48.11a90.24,90.24,0,0,0-2.76-12c-.1-.16-.32-.28-.21-.53A47,47,0,0,0,149.26,24c-.36-.17-.41-.53-.54-.84a16.3,16.3,0,0,0-6.18-5.59c-.31-.07-.65-.1-.85-.41l-1.32-.36c1.92-.6,1.91-.6,1.88-2.86a3,3,0,0,1,.09-1.4c.67.62.49,1.47.51,2.23,0,1,.45,1.36,1.38,1.3.49,0,1,0,1.45,0l45-1a21.61,21.61,0,0,1,3.94.13C205.24,22,211.54,31.65,213.82,44c.21,1.16.38,2.33.57,3.5,0,.51-.39.66-.72.83a11.41,11.41,0,0,0-6.51,10.2c-.14,2.24.07,4.46.06,6.69a2.52,2.52,0,0,1-.3,1.76c-.11.07-.21.18-.35.19a58.09,58.09,0,0,1-10.3.14c-.61-.67,0-1.13.33-1.58a11.63,11.63,0,0,0,1.89-6.88A11.41,11.41,0,0,0,186.73,47.9c-9,.16-18.11.39-27.16.57A3,3,0,0,1,157.41,48.11Z"/><path class="cls-11" d="M206.94,58.1c.11-4.41,2.29-7.56,6-9.77.48-.29,1-.57,1.46-.85a14.46,14.46,0,0,1,7.88-.21c4,1.56,6.8,4.23,7.92,8.46A18.09,18.09,0,0,1,230.7,60q.08,3.16.16,6.32l-.18,0a2.9,2.9,0,0,1-1.88.45l-19.75.42c-2,0-2,0-2.05-2C207,62.83,206.77,60.47,206.94,58.1Z"/><path class="cls-9" d="M196.08,67.1l10.8-.23c.5.49.37,1.14.4,1.74.13,2.4.05,4.81.38,7.21a11.55,11.55,0,0,0,6.17,8.94c.48.27,1.08.4,1.36,1a43,43,0,0,1-13.67,29.66,29.68,29.68,0,0,1-4.59,3.69,18.44,18.44,0,0,1-2.88.23l-46,1c-.49,0-1,0-1.45,0-1.06,0-1.49.43-1.46,1.51,0,.89.31,1.85-.39,2.65a7.15,7.15,0,0,1-.21-3.08c0-1.22-.37-1.65-1.54-1.43a2.85,2.85,0,0,1-.65,0c5.18-1.69,8-5.74,10.21-10.32a47.34,47.34,0,0,0,2.34-6q20.18-.45,40.35-.89c5.1-.12,8.9-2.36,11.17-7,3.37-6.94-1.52-15.8-9.18-16.55-4.52-.44-9.05.08-13.57.07-1.41,0-2.81.09-4.22.07a3.94,3.94,0,0,1-.13-7.88c2.63-.12,5.27-.11,7.91-.2a11.19,11.19,0,0,0,8.62-4.11c0-.07.09-.1.14-.09S196.08,67.08,196.08,67.1Z"/><path class="cls-7" d="M196.08,67.1l-.22,0c-11.58.24-23.17.46-34.76.75-1.24,0-1.65-.18-1.79-1.57-.36-3.4-.18-6.83-.69-10.2-.41-2.67-.57-5.37-1.21-8l28.85-.59c6.06-.13,10.49,3,12.22,8.75a11.09,11.09,0,0,1-1.42,9.43C196.76,66.18,196.41,66.63,196.08,67.1Z"/><path class="cls-7" d="M154.44,35.53l.21.53c-.29,0-.65,0-.65-.39S154.26,35.48,154.44,35.53Z"/><path class="cls-12" d="M215.19,85.72c-5.06-1.86-7.9-6-8.08-11.75-.08-2.37-.15-4.73-.23-7.1s-.1-4.82-.13-7.23a2.41,2.41,0,0,1,.19-1.54c.06,2.46.18,4.92.16,7.38,0,1.1.34,1.41,1.43,1.38,7.38-.2,14.77-.33,22.15-.48.06,2.66.19,5.33.16,8-.06,5.3-2.62,9-7.44,11.16a1.73,1.73,0,0,0-.31.22C220.45,86.37,217.82,86.73,215.19,85.72Z"/><path class="cls-7" d="M271,169.73c0-18.22-51.71-33-115.5-33-12.07,0-23.7.53-34.64,1.51C119,130.7,96.05,124.73,68,124.73c-29.27,0-53,6.49-53,14.5,0,6.81,17.16,12.52,40.3,14.08C45.56,158.15,40,163.75,40,169.73c0,9.18,13.12,17.48,34.29,23.47C32.08,195.71,0,208.2,0,223.23c0,16.85,40.29,30.5,90,30.5s90-13.65,90-30.5c0-7.89-8.85-15.09-23.37-20.5C219.9,202.55,271,187.85,271,169.73Z"/><ellipse class="cls-7" cx="211" cy="219.23" rx="12" ry="5.5"/><ellipse class="cls-7" cx="119" cy="117.73" rx="14" ry="4"/></g></g></svg>