<svg xmlns="http://www.w3.org/2000/svg" viewBox="0 0 193.92 213.17"><defs><style>.cls-1{fill:#ececed;}.cls-2{fill:#f5f6f7;}.cls-3{fill:#2b2522;}.cls-4{fill:#494444;}.cls-5{fill:#facda0;}.cls-6{fill:#683d15;}.cls-7{fill:#422a19;}.cls-8{fill:#235da8;}.cls-9{fill:#0b4d8d;}</style></defs><title>Recurso 13</title><g id="Capa_2" data-name="Capa 2"><g id="Capa_1-2" data-name="Capa 1"><path class="cls-1" d="M96.19.32c15.68,0,31.35,0,47-.14,2.77,0,4,1.86,5.13,3.8q17.79,31,35.48,62.1c2.92,5.12,5.62,10.39,8.82,15.34a6.16,6.16,0,0,1,.19,7.23c-4.9,8.48-9.73,17-14.65,25.46q-9.78,16.83-19.66,33.61c-1.17,2-2.4,4-3.6,6-1.64-.75-2-2.39-2.4-3.85-3.09-10.12-8.74-18.73-15.6-26.64a20.15,20.15,0,0,0-11.43-6.45c-3.29-.72-6.68-1-9.86-2.22-1.64-1.33-3.2-2.72-3.19-5.08.62-2.07,2.32-3.31,3.72-4.76a28.52,28.52,0,0,0,7.6-12.84,9.14,9.14,0,0,1,2.69-4.56c3.59-3.34,4.12-7.63,3.76-12.23-.19-2.52-3-2.6-3.82-4.49a63.88,63.88,0,0,1-.15-17.36c.1-2.25,1.68-3.64,3-5.17a16.55,16.55,0,0,0,2-2.56c2-3.41,1.84-3.81-2-4.19-5.11-.49-5.67-1.39-4.72-7.5-.76-.82-1.59-.22-2.3,0-3.7,1.2-7.38.84-11-.06-4.21-1-8.32-2.48-12.58-3.32a4.15,4.15,0,0,1-3.47-2.83c-.92-8.14-.31-16.3-.34-24.45A3.67,3.67,0,0,1,96.19.32Z"/><path class="cls-2" d="M96.19.32v28c-1.83,2.29-4.43,1.41-6.72,1.51-7.44.32-14,2.65-18.79,8.54-2.76,3.39-5,7.15-3.83,11.89a92.15,92.15,0,0,1,0,20.06,3.15,3.15,0,0,1-.79,1.18c-4.84,4.09-5.25,10-.67,14.77a19.06,19.06,0,0,1,4.54,7.58c1.33,4.18,4,7.61,7,10.78,1.47,1.56,3.32,2.78,4.38,4.73.25,2.43-1.42,3.74-3,5.12-3.15,1.23-6.51,1.63-9.8,2.21a20.47,20.47,0,0,0-12.69,7.53c-6.71,8.14-12.26,16.9-15.12,27.17-.31,1.13-.52,2.38-1.75,3-6-10.23-12-20.45-17.92-30.72C14.51,112.47,8.1,101.22,1.66,90c-1.94-3.38-2.44-6.39-.1-10.21C8.4,68.64,14.66,57.16,21.23,45.86c7.16-12.32,15.07-24.25,21.38-37C46.39,1.25,51.29-.33,59,.05,71.34.66,83.78.28,96.19.32Z"/><path class="cls-3" d="M115.77,113.85c7,.8,14.26,1.16,19.84,6.05,4.26,3.73,7.5,8.48,10.6,13.24a63.47,63.47,0,0,1,8.72,20.54,79.8,79.8,0,0,1-2.29,33c-1.16,4.19-1.7,8.72-5.09,12-2.69,1.14-4.85-.74-7.22-1.31a28.43,28.43,0,0,1-5.09-1.77c-2-1.83-1.08-3.84-.35-5.84.75-1.42.75-3.31,2.51-4.12A75,75,0,0,0,141,169.61c-2.06-2.1-1.35-4.77-1.36-7.22,0-7.62-3.81-13.42-8.89-19.35a38.45,38.45,0,0,0-1.24,8.92c-.07,4.33,0,8.67,0,13,0,1.69,0,3.4-1.41,4.69l-30.39,0c-1-2,.43-3.47,1.34-4.93,4.36-7.06,8.63-14.17,13.09-21.16,1.22-1.91,1.93-3.8,1-6.09a4.37,4.37,0,0,1,1.63-5.16c2.85-2.36,3.09-5.14,2.08-8.41a58.67,58.67,0,0,1-1.55-6.31C115.08,116.31,114.6,115,115.77,113.85Z"/><path class="cls-3" d="M38.91,154.4c.29-4.89,2.36-9.18,4.36-13.55,3-6.66,7.43-12.4,11.88-18.13,4.13-5.33,10-7.11,16.27-8,2.21-.32,4.37-1.15,6.66-.84,1,1.33.5,2.77.21,4.15-.5,2.35-1.08,4.69-1.68,7-.67,2.56-.29,4.68,1.8,6.48a9.49,9.49,0,0,1,3.32,7.33c0,2.38,1.33,4.34,2.46,6.32,3.58,6.27,7.08,12.58,10.61,18.87,1,1.69,2.38,3.54.62,5.62l-29.69,0c-1.59-1.51-1.4-3.5-1.38-5.4.05-6.83-1.35-13.59-.59-20.9-2.41.76-3.14,2.46-4.19,3.76-4.44,5.48-6.08,11.88-6,18.8,0,1.33.26,2.65-.78,3.74-3.62.46-6.15-.65-7.77-4.25C43.29,161.6,41,158.06,38.91,154.4Z"/><path class="cls-4" d="M95.42,169.63c.21-1.69-.71-3-1.46-4.39C90.52,159,87.1,152.79,83.5,146.68c-1.8-3.05-3.61-6-3.27-9.72.23-2.57-2-3.71-3.53-5.17-1.71-1.66-2.49-3.2-1.69-5.72,1.27-4,2.07-8.14,3.07-12.23,0-2.11,2.31-2.56,2.94-4.21,1.91-.94,2.46.5,3.11,1.77.85,3.54,2.32,6.91,3,10.5a62.34,62.34,0,0,0,2.51,9.33c1.51,4.93,2,10.12,4,14.93.85,4.49,2.63,8.77,3.21,12.9,1-4.26,2.43-8.87,3.42-13.59,2.4-8,4.3-16.2,6.52-24.27.84-3.35,1.9-6.63,2.92-9.94.61-1.41,1.33-2.6,3.17-1.62.64,1.64,3,2.1,2.94,4.21,1,4,1.77,8,2.92,11.91a5.45,5.45,0,0,1-2.11,6.56c-2.14,1.64-3.75,3.46-1.56,6.29,1.12,1.44.06,2.68-.71,3.93Q106,156.07,97.72,169.63Z"/><path class="cls-2" d="M52.79,169.66c-2.37-11.52,2-20.65,10-28.51.48-.46.85-1.33,1.71-1s.54,1.25.5,1.88c-.52,9.23,1.24,18.41.7,27.65Z"/><path class="cls-1" d="M128.11,169.66c-.13-9.69-.27-19.37,1-29,3.26.68,6.82,5.14,10.12,12.16,2.56,5.45,1.81,11.12,1.84,16.77Z"/><path class="cls-2" d="M146.23,200.92l-.74-.13a12.88,12.88,0,0,1-10.63-3.61,1.75,1.75,0,0,1,.57-2.14c4.31.34,8.16,2.18,12.12,3.68C147.65,199.78,147.91,200.93,146.23,200.92Z"/><path class="cls-5" d="M83.28,111.76c-.79-.67-.54-2.45-2.26-2.13A29.18,29.18,0,0,1,68.09,92.68a7.9,7.9,0,0,0-3-4.61c-3.12-2.22-5.33-9.73-4.19-13.46.7-2.29,2.11-3.75,4.75-3.44,1.25.23,1.42,1.5,2.32,2.47C69.76,67.71,70.85,61.8,72.16,56c.42-1.85.53-3.91,2.68-4.83,2.65-.39,5,.8,7.31,1.64a64.48,64.48,0,0,0,24.41,4,43.72,43.72,0,0,0,8.91-1.2,7.34,7.34,0,0,1,4.25-.25c2,1,2.24,3,2.65,4.82,1,4.54,1.7,9.15,3.19,13.7.77-.91.71-2.23,1.9-2.62,3.11-.19,4.28,1.34,4.26,4.36,0,5.27-.27,10.28-5.44,13.52-1.69,1.06-1,3.33-1.65,5-2.34,6.45-6.61,11.34-11.8,15.59-1.6-.2-2.07.81-2.26,2.12a9.66,9.66,0,0,1-7.15,4.34,36.89,36.89,0,0,1-14.58-.18A7.65,7.65,0,0,1,83.28,111.76Z"/><path class="cls-6" d="M120.05,56.05c-5,.89-9.82,2.11-15,2.23-10.79.25-20.67-3-30.53-6.62-3.48,1.47-6.31.31-8.82-2.17-2.1-.18-1.23-1.22-.91-2.47C68.06,34.3,78.59,28.5,90.05,28.45c2,0,4.1-.08,6.14-.12,10,1.49,19.51,8.43,30.16,2.31.89,3.23-1,5.59-2,8.38,3,.45,5.54,1.64,8.64.47,2.24-.85,1.76,1.69,1.44,2.55a16.13,16.13,0,0,1-3.56,6.41c-1.29,1.24-2.46,2.6-3.69,3.91A8.46,8.46,0,0,1,120.05,56.05Z"/><path class="cls-7" d="M120.05,56.05a21.17,21.17,0,0,1,7.17-3.69l.24,18.81c-.19,1.52,0,3.1-.8,4.53-.34.62.43,2-1,1.85-.86-.07-1.1-1-1.3-1.91C123,69.1,121.51,62.58,120.05,56.05Z"/><path class="cls-7" d="M65.72,49.49l8.82,2.17Q72,62.63,69.4,73.58c-.13.57-.54,1.07-.63,1.63-.15,1-.15,2.28-1.3,2.16s-1.11-1.47-.94-2.43c.25-1.41-.71-2.49-.87-3.77Z"/><path class="cls-5" d="M144.7,205.78l-1.44,3.5c-1.13,2.76-4.39,4.54-6.9,3.66-3-1.06-3.88-3.23-2.93-6.22.14-.44.48-1.18.34-1.29-4.94-3.88.35-5.65,1.66-8.22,3.38,1.12,6.88,1.88,10.06,3.58C145.22,202.46,145,204.12,144.7,205.78Z"/><path class="cls-8" d="M101.36,145.77c-.73,5.8-2.85,11.22-4.55,16.84-1.49-5.42-3.6-10.59-4.32-16.12-.53-5.31-.87-10.62,0-15.94.23-1.42.23-2.86,1.31-4a5.18,5.18,0,0,1,6.09-.1c2.94,4.83,2,10.19,2,15.4A11.85,11.85,0,0,1,101.36,145.77Z"/><path class="cls-1" d="M83.28,111.76c9.1,5.46,18.19,4.7,27.29,0-.76,3.18-1.09,6.48-2.68,9.42-1.77,3.9-2.25,4.1-5.54,2.34-5.48-5-5.48-5-10.78,0-2.64,2.18-4.31,1-5.61-1.58C84.8,118.6,83.5,115.32,83.28,111.76Z"/><path class="cls-2" d="M86,121.91c1.59.89,3,3.07,5.05.7,1.94.79,3.41,1.92,3.14,4.33.2,5.4-1.3,10.72-.82,16.12.12,1.3-.77,2.24-.84,3.43A214.88,214.88,0,0,1,86,121.91Z"/><path class="cls-2" d="M102.84,122.61c2.58,2.69,3.59-.17,5-1.43-1.11,7.08-3.52,13.83-5.28,20.74-.31,1.25-.11,2.81-1.25,3.85q-.83-9.42-1.66-18.83C99.42,124.53,100.89,123.4,102.84,122.61Z"/><path class="cls-9" d="M102.84,122.61c-.15,2.1-2.35,2.7-3.14,4.33H94.15c-.79-1.63-3-2.23-3.14-4.33C98.43,115.08,95.42,115.08,102.84,122.61Z"/></g></g></svg>