<svg xmlns="http://www.w3.org/2000/svg" viewBox="0 0 158.89 150.09"><defs><style>.cls-1{fill:#eab109;}.cls-2{fill:#2da7df;}.cls-3{fill:#1b9cce;}.cls-4{fill:#fefefe;}.cls-5{fill:#e51973;}.cls-6{fill:#f5f6f7;}.cls-7{fill:#fbdc07;}.cls-8{fill:#d9dada;}.cls-9{fill:#ea557e;}.cls-10{fill:#eac100;}.cls-11{fill:#9b9a9b;}.cls-12{fill:#c5c4c6;}.cls-13{fill:#f9d5a1;}.cls-14{fill:#2b2522;}</style></defs><title>iconRecurso 16</title><g id="Capa_2" data-name="Capa 2"><g id="Capa_1-2" data-name="Capa 1"><path class="cls-1" d="M91.26,103.33a2.2,2.2,0,0,1,1.38,2.35c-.1.81-.71,1.59-1.22,1.46-1-.25-1.28-1.29-1.19-2.38C90.28,104,90.35,103.35,91.26,103.33Z"/><path class="cls-2" d="M125.74,8.76a11.91,11.91,0,0,1-1.7,5.13c-2,.17-2.77-1.56-3.87-2.78-2.55-2.82-5.61-4.85-9.34-4.88-10.58-.1-21.17-.41-31.74.19C70,7.51,60.9,7,51.82,6.84c-7-.11-11.75,3-15.14,9.19Q23,41,9.15,65.89c-3.32,5.94-3.56,11.64-.26,17.57,9.57,17.22,19,34.51,28.59,51.72,3.06,5.49,7.73,7.86,13.76,7.94,9.09.14,18.2-.57,27.28.45,10.88.85,21.79.54,32.68.21,4.85-.14,8.35-3.4,10.83-7.74,5.52-9.67,10.8-19.48,16.19-29.23,4.07-7.38,8.09-14.79,12.24-22.11,3.76-6.64,3.66-13.13-.07-19.65-4.75-8.3-9.15-16.81-13.89-25.12a53.54,53.54,0,0,1-3.35-7,6.82,6.82,0,0,1,1.44-6,1,1,0,0,1,1.26.06c2.21,4.66,5.43,8.81,7.56,13.31,2.65,5.59,5.9,10.77,8.56,16.3,2.25,4.68,5.18,8.93,6.4,14.27a20.05,20.05,0,0,1-2.14,14.42c-9.9,18.41-20.11,36.64-30.34,54.85-4,7.11-10.71,9.68-18.09,9.78-18.91.25-37.82.17-56.74,0-8.19-.06-14.87-3.49-19.11-11.12C22.35,121.57,12.89,104.22,3.25,87-1.94,77.68-.52,69,4.71,60.38,7.77,55.33,10.38,50,13.28,44.8c1.09-1.94,1.83-3.56-1-4.53-.9-.3-2-.83-1.43-2.12s2.05-1.08,2.85-.51c2.82,2,3.74,0,4.89-2.12,4.52-8.48,8.86-17.08,13.77-25.3C36.27,3.71,42.27.08,49.78.05,69.52,0,89.27,0,109,0,116,0,121.16,3.76,125.74,8.76Z"/><path class="cls-3" d="M152.85,66.28C146.88,55,140.37,44,134.09,32.83c-2.52.14-2.43,2.72-3.56,4.17-1.35,1.74-2.88,3.16-5.2,2.56-2.5-.65-2.39-2.77-2.82-5-.8-4.11-.83-7.9,1.11-11.62,0-.09-.08-.26-.13-.4V20c-1.48-2.19.88-4,.55-6.07C120.59,7,115.19,4,107.67,4.28c-8.4.33-16.82,0-25.23.11-1.3,0-2.78-.6-3.88.74-1.7,1.65-1.68,3.83-1.69,6q0,14.06,0,28.1c0,2-.25,4,.65,6a4,4,0,0,0,.88,1.26c1.46,1,3.12,1,4.74,1.32a21.52,21.52,0,0,1,11.39,5.61c7.1,6.82,11.3,18.47,4.42,31-3.33,6.07-7,12.09-7.95,19.27a20.16,20.16,0,0,0,.53,3.09A18.22,18.22,0,0,1,91.8,113a7.23,7.23,0,0,0,0,1.14,8.66,8.66,0,0,1-.26,3.25c-.35,2.41-2.52,3.27-3.79,4.9-1,2.24-2.61,3.52-5.11,3.5a6.89,6.89,0,0,0-4.26,1.2,3.75,3.75,0,0,0-.81,1.19c-.69,5.63-2,11.31,1,16.71,1.1,1.33,2.58.73,3.87.74,7.86.06,15.75-.45,23.56.15,9.78.75,15.37-4.32,19.77-12.67q12.83-24.3,26.36-48.18C155.68,78.65,156.07,72.37,152.85,66.28Z"/><path class="cls-2" d="M78.56,5.13l0,40.7c-1,1.8-2.75,1.73-4.34,2-10.8,1.55-23,15.66-17.23,30.79a103.86,103.86,0,0,0,6.17,12.68c2.1,3.87,4.59,7.59,4.78,12.28a19,19,0,0,1-.63,3,49.73,49.73,0,0,0-.24,6.79,8.23,8.23,0,0,1,0,1.11,6.1,6.1,0,0,0,.26,2.68c.79,2.35,2.95,3.4,4.45,5.08.67,4,5,2.9,6.78,5.41q0,8.65-.07,17.3c-9.11,0-18.22-.17-27.32-.07-6.6.08-11.72-2.47-15.07-8.49-9.59-17.29-19.09-34.64-28.73-51.89-4.08-7.3-3-14,1-20.93C17.76,47.08,26.73,30.41,36,13.9c3-5.35,7.26-8.77,13.61-8.71C59.24,5.28,68.9,5.16,78.56,5.13Z"/><path class="cls-4" d="M46.32,25.19a20.33,20.33,0,0,1,.06-4.75c.81-3.16,2.25-5.76,6.08-5.72s6,1.59,6.27,5.66c.18,2.47,1,4.71.21,7.47-1.71,6-2.81,7.52-8.15,6.8-4.7-.63-4.5-4.53-4.49-8.17V25.19Z"/><path class="cls-4" d="M48.71,64.35a10.85,10.85,0,0,1,1.07-6.85c1.22-2.64,3.32-4,6.78-4.06s6.28,1,7.44,3.88a17.48,17.48,0,0,1-.89,15.58c-1.59,2.84-4.54,2.85-7.5,2.92-3.12.07-4.68-1.79-5.82-3.92A12.5,12.5,0,0,1,48.71,64.35Z"/><path class="cls-5" d="M53.89,46.4c-.41,2.72,1.07,6.86-3.15,6.89s-3.09-4.14-3-6.72-1.48-7.19,3-7.23C55.35,39.3,53.21,43.88,53.89,46.4Z"/><path class="cls-6" d="M79.72,130.07c-10,0-20-.24-29.95-.09-3.38.06-4.32-.85-4.3-4q.2-38.1,0-76.21c0-3.16.92-4.07,4.3-4,10,.15,20,0,29.95-.09L97.28,46c2.68,2.21,2.14,5.22,2.14,8,0,3,1.42,4.32,4.64,4.33,3,0,6.23-.5,8.6,2v42.5c-5.64-.38-7.77-4.61-10.44-8.26-.12-2.15-1.79-2.87-3.64-3.41-1.07-.72-1.86-1.57-1.52-2.92.58-1,2-1.18,2.75-2.33-2.71-1.13-5.74-.51-8.41-1.51-1.1-.76-2-1.61-1.45-3C92.4,79,95.75,80,98.69,79.12,92,79,85.47,77.79,78.79,78.35A6.32,6.32,0,0,1,76.34,78c-2.25-1.21-6.2-.5-5.89-4.57,1.93-1.75,4.4-1.55,6.79-1.58,7-.08,14.07.07,21.1-.49-12-.4-24.09-.45-36.19-.06,2.45.87,5.41.21,7.42,2.24A4.09,4.09,0,0,1,70,76.44c-2.09,3-5.76,1.7-9.12,2.68,4.25,1.3,8.71-.64,12,2.41a2.33,2.33,0,0,1,0,2.06c-3.18,3.07-7.54,1.13-11.61,2.34,5.07,1.38,10.42-1,14.69,2.32a2.33,2.33,0,0,1,0,2.12c-2.3,2.33-5.37,1.68-8.23,1.88-2,.14-4.08-.42-6.58.69,6.55.43,12.59-.1,18.55.82,3.44,1.62,7.43,2.88,6,7.77-2.9,2-6.27,1.24-9.48,1.36-4.63.17-9.27-.18-13.9.4,9.62,1.12,19.39-.49,29,1.33,1.37.75,2.54,1.58,1.88,3.32-1.88,1.84-4.35,1.69-6.75,1.72-7.91.12-15.82-.13-23.73.38,11.87,1.15,23.86-.55,35.7,1.3,1.45.69,2.59,1.54,2.09,3.3-2,2-4.65,1.77-7.2,1.79-10.25.06-20.5,0-30.75.44,13.13.42,26.25.46,39.37.33a4.54,4.54,0,0,1,4.3.3c5.56,2.69,5.57,2.68,9-2.63,1.51-1.86,2.86-4,6-3.48q1.65,1.5,3.28,3c.24,4.69-5.13,10.2-11.4,11.71.43,3.17-1.17,3.91-4.39,3.86C99,129.84,89.35,130,79.72,130.07Z"/><path class="cls-7" d="M103.39,94.2l9.27,8.65q4.23,4.26,8.45,8.54L116,115.47c-1.74.85-3-.14-4.1-1.11-9.7-8.78-19.35-17.6-28.61-26.79a4.21,4.21,0,0,1-1.11-2.14c.11-2.93,2.18-4.39,4.72-5.52,1.52-.16,2.67.24,3.09,1.77l2.06,1.95c2.25,1.12,5.18,1.59,5.19,4.81l2,2A5.84,5.84,0,0,1,103.39,94.2Z"/><path class="cls-8" d="M112.66,60.35c-3.9,0-7.81-.09-11.72,0-2.59,0-3.7-1-3.65-3.41.08-3.64,0-7.29,0-10.94A38.56,38.56,0,0,1,112.66,60.35Z"/><path class="cls-9" d="M113,126.12c3.82-3.89,9-6.65,11.4-11.71,2.37,2,5.69,3.6,2.83,7.33C122.11,128.39,118.69,129.45,113,126.12Z"/><path class="cls-10" d="M82.71,85.39c9.24,7.46,17.34,16,26.15,23.89,2.35,2.1,4.78,4.12,7.17,6.19.94,4.1-3.29,5-5.43,6.94-1.33,1.17-2.51-1.78-3.94-2.65a29.85,29.85,0,0,1-3.06-2.45c-2-.08-3.06-1.07-3.15-3l-2-2c-2.24-1.12-5.19-1.58-5.2-4.8l-2.1-2c-2.31-1.07-5.15-1.62-5.18-4.82L79.77,95c-2-1-4.7-1.5-3.66-4.6C77.44,87.73,78.69,85,82.71,85.39Z"/><path class="cls-11" d="M69.37,73.85c-3.26,0-6.53,0-9.8,0-1.6,0-2.57-.46-2.62-2.18S57.63,69,59.63,69q20.62,0,41.26,0c2.06,0,2.64.92,2.6,2.69,0,2.18-1.63,2.12-3.21,2.12H70.37C70,74.34,69.7,74.32,69.37,73.85Z"/><path class="cls-12" d="M100.45,114.36a7.86,7.86,0,0,1,3.15,3c-.47,2.23-2.37,2-4,2q-19.08,0-38.15,0c-1.95,0-4.5.52-4.36-2.58.13-2.75,2.47-2.2,4.23-2.21C74.33,114.4,87.39,114.39,100.45,114.36Z"/><path class="cls-12" d="M93.2,107.6l5.2,4.8q-18.53.06-37.05.09c-2,0-4.48.48-4.3-2.61.15-2.75,2.5-2.16,4.25-2.17C71.93,107.63,82.57,107.63,93.2,107.6Z"/><path class="cls-11" d="M85.92,100.77l5.18,4.82-30.45.16c-2,0-3.85.09-3.71-2.65.14-2.55,2.05-2.15,3.69-2.17C69.06,100.85,77.49,100.82,85.92,100.77Z"/><path class="cls-11" d="M70.9,62.23c-3.77,0-7.54,0-11.31,0-2,0-2.69-.86-2.64-2.65s1.06-2.16,2.64-2.15c7.55,0,15.09,0,22.63,0,2,0,2.69.86,2.64,2.65s-1.06,2.16-2.64,2.15Z"/><path class="cls-13" d="M82.71,85.39l-6,5a.75.75,0,0,1-1.12-.13l-.06-1.83c-2-1.14-3.65-2.43-3-4.95l-.08-1.82A1.69,1.69,0,0,1,72,80.36a5.3,5.3,0,0,1,4.8-3.63l1.93.12c2.65,1.51,7.23-.66,8.31,3.81Z"/><path class="cls-12" d="M75.54,90.21l1.12.13C76.33,92.69,79,93.28,79.77,95q-9.57.06-19.15.1c-1.78,0-3.58,0-3.61-2.36s1.7-2.44,3.53-2.45Z"/><path class="cls-12" d="M87,80.66,78.7,76.85l21.2-.09c1.82,0,3.55.1,3.53,2.43s-1.8,2.37-3.59,2.39l-9.82.1C89.06,81.24,88.26,80.38,87,80.66Z"/><path class="cls-12" d="M72.44,83.43c1.55,1.36,2.17,3.23,3,4.95l-14.94,0c-1.82,0-3.55-.11-3.53-2.43s1.79-2.37,3.58-2.39Z"/><path class="cls-12" d="M72.47,80.78a5.71,5.71,0,0,1-.11.83l-11.88,0c-1.84,0-3.52-.16-3.47-2.48s1.89-2.32,3.65-2.33c2.92,0,5.85,0,8.78,0S72.55,78.72,72.47,80.78Z"/><path class="cls-12" d="M97.27,88.44l-5.2-4.81c2.37,0,4.73-.13,7.09-.09,2,0,4.39-.45,4.25,2.58-.11,2.71-2.38,2.08-4.12,2.23C98.62,88.41,97.94,88.41,97.27,88.44Z"/><path class="cls-14" d="M72.47,80.78l-3-4-.07-2.89h1c1.67,1.84,4.68,1.12,6.4,2.88Z"/><path class="cls-12" d="M103.39,94.2l-4.07-3.8Q104.26,89.59,103.39,94.2Z"/><path class="cls-2" d="M55.41,25c.28,2.57-.46,6.47-2.82,6.39-2.64-.1-3.14-4.11-2.94-7,.17-2.41-.06-6,3-5.92S55.4,22.14,55.41,25Z"/><path class="cls-3" d="M135.87,27.16l-9.13-16.54a6.49,6.49,0,0,0-9-2.54l-6.84,4.13a7.14,7.14,0,0,0-2.43,9.48l9.13,16.54a6.5,6.5,0,0,0,9.06,2.54l6.83-4.13A7.14,7.14,0,0,0,135.87,27.16Z"/><path class="cls-4" d="M60.14,20.72c-.13-1.79-.69-3.4,1.69-4.55a7.42,7.42,0,0,1,7.34.6c1.4.83,2,2.93,1.52,5.12-.78,3.54-3.52,5.56-5.68,8a5.5,5.5,0,0,0,.64.55c1.42.85,4.62-1.66,4.42,1.81-.16,2.67-2.89,1-4.43,1.34a16,16,0,0,1-3.91,0c-.84,0-2,.46-2.39-.65a2.76,2.76,0,0,1,.87-3.16c1.62-1.52,3.26-3.05,4.72-4.71,1.29-1.48,3.28-2.95,1.31-5.27s-3.63-.44-5.32.58A3.9,3.9,0,0,1,60.14,20.72Z"/></g></g></svg>