<svg xmlns="http://www.w3.org/2000/svg" viewBox="0 0 156.61 144.94"><defs><style>.cls-1{fill:#cbbb9f;}.cls-2{fill:#e30b18;}.cls-3{fill:#d41016;}.cls-4{fill:#fefefe;}.cls-5{fill:#8a432d;}.cls-6{fill:#e4e4e4;}.cls-7{fill:#c7c5cc;}.cls-8{fill:#5a5a5a;}.cls-9{fill:#444;}.cls-10{fill:#b658cd;}.cls-11{fill:#fda732;}.cls-12{fill:#3aa9fe;}.cls-13{fill:#a14f3d;}.cls-14{fill:#b25c4b;}</style></defs><title>iconRecurso 18</title><g id="Capa_2" data-name="Capa 2"><g id="Capa_1-2" data-name="Capa 1"><path class="cls-1" d="M9.45,87.86c1.4,1.2,4,1,4.49,3.43a1,1,0,0,1-1.52,1.2c-1.7-.87-4.12-.91-4.7-3.22C7.53,88.52,8.41,87.89,9.45,87.86Z"/><path class="cls-1" d="M17.3,92.72c1.59.73,3.51,1.24,4,3.35.23,1-.5,1.75-1.35,1.34-1.6-.77-3.59-1.27-4.15-3.3C15.54,93.13,16.22,92.67,17.3,92.72Z"/><path class="cls-2" d="M97.85,141c-3.41,0-6.83-.13-10.23,0-2.07.11-5.12-1.49-5.21,2.94,0,1.44-2.39,1.23-2.51-.22-.29-3.49-2.63-2.75-4.66-2.75-8.33,0-16.67-.37-25,.08-9.47.51-15.46-3.91-19.93-11.74C21.53,113.87,12.52,98.52,3.53,83.16c-5.39-9.2-4.31-18,1.2-26.71,3.88-6.16,7.34-12.57,11-18.86.9-1.55,1.91-3-.14-4.5a1.6,1.6,0,0,1-.47-2.19A1.3,1.3,0,0,1,17,30.63c2.49,1.66,3.21-.72,4-2C24.43,22.9,27.9,17.1,31,11.13,34.89,3.78,41,.19,49,.12,68.41,0,87.79,0,107.17.1c7.64,0,13.64,3,17.65,10.06,9.32,16.41,18.89,32.68,28.54,48.9,5.82,9.77,3,18.44-2.28,27.3-8,13.29-15.6,26.8-23.27,40.27-3.62,6.35-7.49,12.66-15.26,14-4.76.84-9.79.15-14.7.15Z"/><path class="cls-3" d="M77.92,6.61c0-1.94,1.53-1.52,2.66-1.52,9.55,0,19.11-.29,28.64.08,7.65.29,11.49,5.79,14.94,11.82,8.92,15.54,18.16,30.91,27.14,46.42a14.38,14.38,0,0,1,.15,14.83C144.86,89.92,138,101.44,131.21,113c-3.28,5.62-6.45,11.3-9.93,16.79a14.6,14.6,0,0,1-13.47,7.13c-10-.21-19.9-.14-29.86-.18A3.7,3.7,0,0,1,76.41,134c0-5.31-.82-10.64.51-15.9a3.37,3.37,0,0,1,.83-1.12A8.87,8.87,0,0,1,82,115.9,34.42,34.42,0,0,0,113.9,84.35c1.41-19.32-10.55-34.73-28.65-38-2.55-.45-5.13-.75-7.47-2a3.65,3.65,0,0,1-.88-1.18c-.91-1.78-.65-3.69-.66-5.56q-.06-12.72,0-25.43C76.24,10.18,76.22,8.15,77.92,6.61Z"/><path class="cls-2" d="M77.92,4.89l0,37.64c-1.17,2.11-3.37,2.11-5.33,2.47C50,49.17,37,71,44.86,92.49c4.86,13.19,14.76,20.89,28.76,23.11,1.58.25,3.35,0,4.33,1.76v19.38c-9.81,0-19.63.32-29.44.06-5.95-.16-10.31-3.58-13.26-8.66-9.56-16.45-18.89-33-28.64-49.36C2.35,71.65,5,65.62,8.44,59.57c8.83-15.33,17.9-30.52,26.64-45.89,3.41-6,8-8.94,15-8.77C59.37,5.14,68.65,4.92,77.92,4.89Z"/><path class="cls-4" d="M44.36,23.46a19.52,19.52,0,0,1,0-3.67c.62-3,1.84-5.47,5.51-5.84,3.92-.41,5.66,1.24,6.89,4.94,1.15,3.49.39,6.69-.32,9.79s-3.24,4.43-6.72,4.24c-3.68-.21-4.54-2.75-5.32-5.4-.37-1.26-.06-2.7-.06-4.06Z"/><path class="cls-4" d="M58.45,17.73c-.55-1.52-.76-3.41,1-3.66,2.79-.38,5.91-1.31,8.28,1.58,1.32,1.61,1.59,3.44.34,4.74-1.61,1.68-1.24,2.46.06,4.11,1.87,2.38.51,6-2.18,7.45-2.34,1.28-4.78.69-7.15.55-1.47-.09-1.74-1.56-1.5-2.87.31-1.73,1.23-.64,2-.45a12.71,12.71,0,0,0,2.83.18c1.74,0,3.08-1,3-2.58a2.72,2.72,0,0,0-2.89-2.31c-.55,0-1.09,0-1.64,0-1.11.06-1.8-.23-1.8-1.55s.39-1.7,1.63-1.74c1.82-.06,4.52,0,3.87-2.57s-3.1-2.24-5.14-.88C59.09,17.84,58.76,17.73,58.45,17.73Z"/><path class="cls-2" d="M53.37,23.35c0,2.54.25,6.09-3,5.93-2.74-.15-2.88-3.7-2.69-6.21.18-2.25-.13-5.7,3-5.57S53.36,20.93,53.37,23.35Z"/><path class="cls-5" d="M124.19,28.23c.92.39,1.15,1.22,1.56,1.93l.15,2.16a28.07,28.07,0,0,1-4.56,9.46c-1.07,1.54-2.2,3-3.43,4.5-.41.15-.64-.12-.88-.3-1.67-1.26-3.31-2.54-5-3.78-.61-.45-.7-.9-.23-1.47.22-.28.45-.54.69-.79l10.86-11A2,2,0,0,1,124.19,28.23Z"/><path class="cls-6" d="M73.84,120.5H71.67c-.35-.2-.73,0-1.09-.1a33.19,33.19,0,0,1-13.35-3.17,39.34,39.34,0,0,1-13-9.12A39.81,39.81,0,0,1,33.35,85.54,54.32,54.32,0,0,1,33.14,77,35.58,35.58,0,0,1,36,64.19,40.12,40.12,0,0,1,44.18,51.7,40.93,40.93,0,0,1,59.11,41.63a37.87,37.87,0,0,1,11.32-2.57A20.66,20.66,0,0,1,73,38.9c.38,0,.8,0,1,.45a3.6,3.6,0,0,1,.1,1.08q0,11.43,0,22.86a5.49,5.49,0,0,1,0,.81,1.69,1.69,0,0,1-.51,1,11.34,11.34,0,0,0-2.28,4,8.05,8.05,0,0,1-6,5.51A7.47,7.47,0,0,0,64,75a2.39,2.39,0,0,0-.84,3.78,17.73,17.73,0,0,0,7.27,5,21,21,0,0,0,2.91.83c.37.07.68.21.77.63a6.79,6.79,0,0,1,.07,1.35q0,16.13,0,32.24A2.34,2.34,0,0,1,73.84,120.5Z"/><path class="cls-7" d="M107.82,57.38A39.64,39.64,0,0,1,114,72.82a40.46,40.46,0,0,1,.49,9.7c-.19,3.06-.6,6.11-2.64,8.64a11.74,11.74,0,0,1-8.56,4.56c-3.86.3-7-1.21-9.8-3.75a5.34,5.34,0,0,0-8.63,3.27,5.64,5.64,0,0,0,1.78,5A12.2,12.2,0,0,1,86.31,117a12.84,12.84,0,0,1-7.21,3.2,5.93,5.93,0,0,0-2,.35h-.36a3.47,3.47,0,0,0-1.81,0H73.84q0-17.73,0-35.47a1.59,1.59,0,0,1,1.22-.19,17.15,17.15,0,0,0,13.12-4.41,11,11,0,0,0,3.67-6.07,12.12,12.12,0,0,0,.07-4,3.32,3.32,0,0,1-.13-1.25.87.87,0,0,1,.52-.46,50.72,50.72,0,0,0,10.47-7.11c1.44-1.19,2.79-2.46,4.2-3.67C107.24,57.63,107.42,57.32,107.82,57.38Z"/><path class="cls-7" d="M73.86,39.15A39.81,39.81,0,0,1,88.38,41.8a38.15,38.15,0,0,1,7.7,3.9,1.38,1.38,0,0,0,.34.12c.15.41-.19.6-.4.82A78.39,78.39,0,0,0,87.62,57a29.74,29.74,0,0,0-2.37,4.14c-.17.34-.26.75-.67.93-1.1-.07-2.19-.24-3.3-.25A10.48,10.48,0,0,0,74.85,64c-.3.22-.55.59-1,.5Q73.85,51.81,73.86,39.15Z"/><path class="cls-8" d="M73.84,64.45A11.42,11.42,0,0,1,84.68,61.9c1.51,0,2.59.94,3.73,1.74a5,5,0,0,1,.8.72.34.34,0,0,1,.07.24,2.66,2.66,0,0,1-.8,1L71.24,82.81a7.92,7.92,0,0,0-1,1.15A17.35,17.35,0,0,1,63,79a2.62,2.62,0,0,1,1.39-4.34,10.53,10.53,0,0,0,4-1.71,6.82,6.82,0,0,0,2.46-3.27A13.9,13.9,0,0,1,73.84,64.45Z"/><path class="cls-9" d="M70.23,84c-.23-.33,0-.49.23-.67Q79.69,74,88.91,64.84a2.64,2.64,0,0,1,.29-.21.28.28,0,0,1,.34,0A8,8,0,0,1,91.93,69a13.15,13.15,0,0,1,.1,5.79c-.84,3.43-3.09,5.76-6,7.58a17.25,17.25,0,0,1-11.23,2.73c-.32,0-.66,0-1,0A19.8,19.8,0,0,1,70.23,84Z"/><path class="cls-10" d="M71.13,58.17A8.12,8.12,0,0,1,63,66.25a8.11,8.11,0,1,1,8.11-8.08Z"/><path class="cls-11" d="M60.29,74.44a8.13,8.13,0,0,1-16.25,0,8.13,8.13,0,1,1,16.25,0Z"/><path class="cls-12" d="M57.54,104.23A8.13,8.13,0,0,1,57.59,88a8.13,8.13,0,1,1-.05,16.26Z"/><path class="cls-13" d="M91.93,69a14.1,14.1,0,0,0-2.16-3.79,1.7,1.7,0,0,0-.57-.56,1,1,0,0,0,0-.17c.11-.44.48-.68.77-1l21.12-21.12c.17-.17.33-.36.51-.51.45-.39.41-.72,0-1.12-1.32-1.29-2.61-2.59-3.9-3.9-.25-.26-.66-.46-.57-.94,3.59-2.94,7.3-5.71,11.69-7.37a6.6,6.6,0,0,1,4.14-.44,2.72,2.72,0,0,1,1.54.87,2.75,2.75,0,0,1-.7.82L113.65,39.92c-.13.13-.26.25-.38.39-.89.93-.9.94,0,1.84,1.51,1.46,2.91,3,4.51,4.41a115.14,115.14,0,0,1-8.27,9.11l-1.71,1.71A102.59,102.59,0,0,1,98,65.49,28.52,28.52,0,0,1,91.93,69Z"/><path class="cls-14" d="M107.12,35.9c1.56,1.58,3.1,3.19,4.69,4.75.48.47.57.75,0,1.28q-11.07,11-22.1,22.07a6.09,6.09,0,0,1-.55.46c-.64-.22-1-.79-1.55-1.16a15.1,15.1,0,0,0-3-1.4,41.8,41.8,0,0,1,6.12-9.63c1.76-2.25,3.69-4.35,5.62-6.45,3.23-3.41,6.73-6.53,10.27-9.61C106.82,36.1,107,36,107.12,35.9Z"/></g></g></svg>